<svg width="30" height="30" viewBox="0 0 30 30" fill="none" xmlns="http://www.w3.org/2000/svg">
<path fill-rule="evenodd" clip-rule="evenodd" d="M0 0H4.28572V4.28572H0V0ZM4.28541 4.28577H8.57113V8.5715H4.28541V4.28577ZM4.28572 25.7143H0V30H4.28572V25.7143ZM25.7146 25.7143H30.0004V30H25.7146V25.7143ZM12.8573 8.57146H8.57155V12.8572H12.857V17.1429H17.1427V12.8571H12.8573V8.57146ZM21.4288 17.1429H17.1431V21.4286H21.4285V25.7143H25.7142V21.4286H21.4288V17.1429ZM21.4289 4.28577H25.7146V8.5715H21.4289V4.28577ZM30.0001 0H25.7143V4.28572H30.0001V0ZM17.1428 8.57146H21.4285V12.8572H17.1428V8.57146ZM12.857 17.1429H8.57123V21.4286H4.28583V25.7143H8.57155V21.4286H12.857V17.1429Z" fill="#D5F037"/>
</svg>
